<?xml version="1.0" encoding="utf-8" standalone="no"?>
<!DOCTYPE svg PUBLIC "-//W3C//DTD SVG 1.1//EN"
  "http://www.w3.org/Graphics/SVG/1.1/DTD/svg11.dtd">
<svg xmlns:xlink="http://www.w3.org/1999/xlink" width="548.399788pt" height="197.257443pt" viewBox="0 0 548.399788 197.257443" xmlns="http://www.w3.org/2000/svg" version="1.1">
 <metadata>
  <rdf:RDF xmlns:dc="http://purl.org/dc/elements/1.1/" xmlns:cc="http://creativecommons.org/ns#" xmlns:rdf="http://www.w3.org/1999/02/22-rdf-syntax-ns#">
   <cc:Work>
    <dc:type rdf:resource="http://purl.org/dc/dcmitype/StillImage"/>
    <dc:date>2026-06-18T14:05:04.193103</dc:date>
    <dc:format>image/svg+xml</dc:format>
    <dc:creator>
     <cc:Agent>
      <dc:title>Matplotlib v3.10.5, https://matplotlib.org/</dc:title>
     </cc:Agent>
    </dc:creator>
   </cc:Work>
  </rdf:RDF>
 </metadata>
 <defs>
  <style type="text/css">*{stroke-linejoin: round; stroke-linecap: butt}</style>
 </defs>
 <g id="figure_1">
  <g id="patch_1">
   <path d="M 0 197.257443 
L 548.399788 197.257443 
L 548.399788 0 
L 0 0 
z
" style="fill: #ffffff"/>
  </g>
  <g id="axes_1">
   <g id="patch_2">
    <path d="M 34.288984 166.208849 
L 181.519401 166.208849 
L 181.519401 18.978433 
L 34.288984 18.978433 
z
" style="fill: #ffffff"/>
   </g>
   <g id="line2d_1">
    <path d="M 37.120339 163.377495 
L 178.688046 21.809787 
" clip-path="url(#p6a67e0e879)" style="fill: none; stroke-dasharray: 2.775,1.2; stroke-dashoffset: 0; stroke: #7a7a7a; stroke-width: 0.75"/>
   </g>
   <g id="matplotlib.axis_1">
    <g id="xtick_1">
     <g id="line2d_2">
      <defs>
       <path id="m5fb48592a5" d="M 0 0 
L 0 3 
" style="stroke: #222222; stroke-width: 0.65"/>
      </defs>
      <g>
       <use xlink:href="#m5fb48592a5" x="37.120339" y="166.208849" style="fill: #222222; stroke: #222222; stroke-width: 0.65"/>
      </g>
     </g>
     <g id="text_1">
      <text style="font-size: 7px; font-family: 'Liberation Sans', 'Arial', 'Helvetica', 'DejaVu Sans', sans-serif; text-anchor: middle; fill: #222222" x="37.120339" y="177.719318" transform="rotate(-0 37.120339 177.719318)">0.0</text>
     </g>
    </g>
    <g id="xtick_2">
     <g id="line2d_3">
      <g>
       <use xlink:href="#m5fb48592a5" x="107.904192" y="166.208849" style="fill: #222222; stroke: #222222; stroke-width: 0.65"/>
      </g>
     </g>
     <g id="text_2">
      <text style="font-size: 7px; font-family: 'Liberation Sans', 'Arial', 'Helvetica', 'DejaVu Sans', sans-serif; text-anchor: middle; fill: #222222" x="107.904192" y="177.719318" transform="rotate(-0 107.904192 177.719318)">0.5</text>
     </g>
    </g>
    <g id="xtick_3">
     <g id="line2d_4">
      <g>
       <use xlink:href="#m5fb48592a5" x="178.688046" y="166.208849" style="fill: #222222; stroke: #222222; stroke-width: 0.65"/>
      </g>
     </g>
     <g id="text_3">
      <text style="font-size: 7px; font-family: 'Liberation Sans', 'Arial', 'Helvetica', 'DejaVu Sans', sans-serif; text-anchor: middle; fill: #222222" x="178.688046" y="177.719318" transform="rotate(-0 178.688046 177.719318)">1.0</text>
     </g>
    </g>
    <g id="text_4">
     <text style="font-size: 7.5px; font-family: 'Liberation Sans', 'Arial', 'Helvetica', 'DejaVu Sans', sans-serif; text-anchor: middle; fill: #222222" x="107.904192" y="188.478928" transform="rotate(-0 107.904192 188.478928)">Mean predicted probability</text>
    </g>
   </g>
   <g id="matplotlib.axis_2">
    <g id="ytick_1">
     <g id="line2d_5">
      <defs>
       <path id="mcd6b163740" d="M 0 0 
L -3 0 
" style="stroke: #222222; stroke-width: 0.65"/>
      </defs>
      <g>
       <use xlink:href="#mcd6b163740" x="34.288984" y="163.377495" style="fill: #222222; stroke: #222222; stroke-width: 0.65"/>
      </g>
     </g>
     <g id="text_5">
      <text style="font-size: 7px; font-family: 'Liberation Sans', 'Arial', 'Helvetica', 'DejaVu Sans', sans-serif; text-anchor: end; fill: #222222" x="27.788984" y="165.88273" transform="rotate(-0 27.788984 165.88273)">0.0</text>
     </g>
    </g>
    <g id="ytick_2">
     <g id="line2d_6">
      <g>
       <use xlink:href="#mcd6b163740" x="34.288984" y="92.593641" style="fill: #222222; stroke: #222222; stroke-width: 0.65"/>
      </g>
     </g>
     <g id="text_6">
      <text style="font-size: 7px; font-family: 'Liberation Sans', 'Arial', 'Helvetica', 'DejaVu Sans', sans-serif; text-anchor: end; fill: #222222" x="27.788984" y="95.098876" transform="rotate(-0 27.788984 95.098876)">0.5</text>
     </g>
    </g>
    <g id="ytick_3">
     <g id="line2d_7">
      <g>
       <use xlink:href="#mcd6b163740" x="34.288984" y="21.809787" style="fill: #222222; stroke: #222222; stroke-width: 0.65"/>
      </g>
     </g>
     <g id="text_7">
      <text style="font-size: 7px; font-family: 'Liberation Sans', 'Arial', 'Helvetica', 'DejaVu Sans', sans-serif; text-anchor: end; fill: #222222" x="27.788984" y="24.315022" transform="rotate(-0 27.788984 24.315022)">1.0</text>
     </g>
    </g>
    <g id="text_8">
     <text style="font-size: 7.5px; font-family: 'Liberation Sans', 'Arial', 'Helvetica', 'DejaVu Sans', sans-serif; text-anchor: middle; fill: #222222" x="12.568359" y="92.593641" transform="rotate(-90 12.568359 92.593641)">Observed event rate</text>
    </g>
   </g>
   <g id="line2d_8">
    <path d="M 78.724884 116.188259 
L 88.936624 115.759266 
L 102.276308 117.234584 
L 115.000929 118.792241 
L 129.066463 114.480052 
L 143.531014 114.146417 
L 157.536686 107.790175 
L 174.205711 78.694601 
" clip-path="url(#p6a67e0e879)" style="fill: none; stroke: #e64b35; stroke-width: 1.05; stroke-linecap: square"/>
   </g>
   <g id="patch_3">
    <path d="M 34.288984 166.208849 
L 34.288984 18.978433 
" style="fill: none; stroke: #222222; stroke-width: 0.65; stroke-linejoin: miter; stroke-linecap: square"/>
   </g>
   <g id="patch_4">
    <path d="M 34.288984 166.208849 
L 181.519401 166.208849 
" style="fill: none; stroke: #222222; stroke-width: 0.65; stroke-linejoin: miter; stroke-linecap: square"/>
   </g>
   <g id="PathCollection_1">
    <path d="M 78.724884 117.609696 
C 79.101854 117.609696 79.463434 117.459924 79.729992 117.193367 
C 79.996549 116.926809 80.146321 116.565229 80.146321 116.188259 
C 80.146321 115.81129 79.996549 115.44971 79.729992 115.183152 
C 79.463434 114.916595 79.101854 114.766823 78.724884 114.766823 
C 78.347915 114.766823 77.986335 114.916595 77.719777 115.183152 
C 77.45322 115.44971 77.303448 115.81129 77.303448 116.188259 
C 77.303448 116.565229 77.45322 116.926809 77.719777 117.193367 
C 77.986335 117.459924 78.347915 117.609696 78.724884 117.609696 
z
" clip-path="url(#p6a67e0e879)" style="fill: #e64b35; stroke: #ffffff; stroke-width: 0.45"/>
    <path d="M 88.936624 117.417873 
C 89.376492 117.417873 89.798403 117.243111 90.109436 116.932078 
C 90.420469 116.621045 90.595231 116.199134 90.595231 115.759266 
C 90.595231 115.319399 90.420469 114.897488 90.109436 114.586454 
C 89.798403 114.275421 89.376492 114.10066 88.936624 114.10066 
C 88.496757 114.10066 88.074846 114.275421 87.763812 114.586454 
C 87.452779 114.897488 87.278018 115.319399 87.278018 115.759266 
C 87.278018 116.199134 87.452779 116.621045 87.763812 116.932078 
C 88.074846 117.243111 88.496757 117.417873 88.936624 117.417873 
z
" clip-path="url(#p6a67e0e879)" style="fill: #e64b35; stroke: #ffffff; stroke-width: 0.45"/>
    <path d="M 102.276308 119.488247 
C 102.873987 119.488247 103.447266 119.250787 103.869889 118.828165 
C 104.292511 118.405542 104.529972 117.832262 104.529972 117.234584 
C 104.529972 116.636905 104.292511 116.063626 103.869889 115.641003 
C 103.447266 115.218381 102.873987 114.98092 102.276308 114.98092 
C 101.67863 114.98092 101.10535 115.218381 100.682727 115.641003 
C 100.260105 116.063626 100.022645 116.636905 100.022645 117.234584 
C 100.022645 117.832262 100.260105 118.405542 100.682727 118.828165 
C 101.10535 119.250787 101.67863 119.488247 102.276308 119.488247 
z
" clip-path="url(#p6a67e0e879)" style="fill: #e64b35; stroke: #ffffff; stroke-width: 0.45"/>
    <path d="M 115.000929 121.451658 
C 115.706215 121.451658 116.382709 121.171445 116.881421 120.672733 
C 117.380133 120.174021 117.660346 119.497527 117.660346 118.792241 
C 117.660346 118.086956 117.380133 117.410462 116.881421 116.91175 
C 116.382709 116.413038 115.706215 116.132825 115.000929 116.132825 
C 114.295644 116.132825 113.61915 116.413038 113.120438 116.91175 
C 112.621725 117.410462 112.341513 118.086956 112.341513 118.792241 
C 112.341513 119.497527 112.621725 120.174021 113.120438 120.672733 
C 113.61915 121.171445 114.295644 121.451658 115.000929 121.451658 
z
" clip-path="url(#p6a67e0e879)" style="fill: #e64b35; stroke: #ffffff; stroke-width: 0.45"/>
    <path d="M 129.066463 117.034721 
C 129.743969 117.034721 130.393817 116.765545 130.872886 116.286475 
C 131.351955 115.807406 131.621131 115.157558 131.621131 114.480052 
C 131.621131 113.802546 131.351955 113.152697 130.872886 112.673628 
C 130.393817 112.194559 129.743969 111.925383 129.066463 111.925383 
C 128.388956 111.925383 127.739108 112.194559 127.260039 112.673628 
C 126.78097 113.152697 126.511794 113.802546 126.511794 114.480052 
C 126.511794 115.157558 126.78097 115.807406 127.260039 116.286475 
C 127.739108 116.765545 128.388956 117.034721 129.066463 117.034721 
z
" clip-path="url(#p6a67e0e879)" style="fill: #e64b35; stroke: #ffffff; stroke-width: 0.45"/>
    <path d="M 143.531014 116.648432 
C 144.194556 116.648432 144.831011 116.384804 145.300206 115.915609 
C 145.769401 115.446414 146.033029 114.809959 146.033029 114.146417 
C 146.033029 113.482875 145.769401 112.846421 145.300206 112.377226 
C 144.831011 111.908031 144.194556 111.644403 143.531014 111.644403 
C 142.867472 111.644403 142.231018 111.908031 141.761823 112.377226 
C 141.292628 112.846421 141.029 113.482875 141.029 114.146417 
C 141.029 114.809959 141.292628 115.446414 141.761823 115.915609 
C 142.231018 116.384804 142.867472 116.648432 143.531014 116.648432 
z
" clip-path="url(#p6a67e0e879)" style="fill: #e64b35; stroke: #ffffff; stroke-width: 0.45"/>
    <path d="M 157.536686 110.404281 
C 158.229955 110.404281 158.894923 110.128842 159.385138 109.638627 
C 159.875354 109.148412 160.150792 108.483444 160.150792 107.790175 
C 160.150792 107.096906 159.875354 106.431938 159.385138 105.941723 
C 158.894923 105.451508 158.229955 105.176069 157.536686 105.176069 
C 156.843417 105.176069 156.17845 105.451508 155.688234 105.941723 
C 155.198019 106.431938 154.92258 107.096906 154.92258 107.790175 
C 154.92258 108.483444 155.198019 109.148412 155.688234 109.638627 
C 156.17845 110.128842 156.843417 110.404281 157.536686 110.404281 
z
" clip-path="url(#p6a67e0e879)" style="fill: #e64b35; stroke: #ffffff; stroke-width: 0.45"/>
    <path d="M 174.205711 82.230135 
C 175.143345 82.230135 176.042703 81.857609 176.705711 81.194601 
C 177.368719 80.531593 177.741245 79.632236 177.741245 78.694601 
C 177.741245 77.756967 177.368719 76.857609 176.705711 76.194601 
C 176.042703 75.531593 175.143345 75.159067 174.205711 75.159067 
C 173.268076 75.159067 172.368719 75.531593 171.705711 76.194601 
C 171.042703 76.857609 170.670177 77.756967 170.670177 78.694601 
C 170.670177 79.632236 171.042703 80.531593 171.705711 81.194601 
C 172.368719 81.857609 173.268076 82.230135 174.205711 82.230135 
z
" clip-path="url(#p6a67e0e879)" style="fill: #e64b35; stroke: #ffffff; stroke-width: 0.45"/>
   </g>
   <g id="text_9">
    <text style="font-size: 7px; font-family: 'Liberation Sans', 'Arial', 'Helvetica', 'DejaVu Sans', sans-serif; text-anchor: start; fill: #222222" x="40.178201" y="32.822727" transform="rotate(-0 40.178201 32.822727)">ECE = 0.328</text>
   </g>
   <g id="text_10">
    <text style="font-weight: 700; font-size: 9.2px; font-family: 'Liberation Sans', 'Arial', 'Helvetica', 'DejaVu Sans', sans-serif; text-anchor: start; fill: #222222" x="10.732118" y="13.785188" transform="rotate(-0 10.732118 13.785188)">a</text>
   </g>
   <g id="text_11">
    <text style="font-size: 8px; font-family: 'Liberation Sans', 'Arial', 'Helvetica', 'DejaVu Sans', sans-serif; text-anchor: start; fill: #222222" x="34.288984" y="15.978433" transform="rotate(-0 34.288984 15.978433)">Raw top-label</text>
   </g>
  </g>
  <g id="axes_2">
   <g id="patch_5">
    <path d="M 213.112355 166.208849 
L 360.342771 166.208849 
L 360.342771 18.978433 
L 213.112355 18.978433 
z
" style="fill: #ffffff"/>
   </g>
   <g id="line2d_9">
    <path d="M 215.943709 163.377495 
L 357.511417 21.809787 
" clip-path="url(#pe8b09aa000)" style="fill: none; stroke-dasharray: 2.775,1.2; stroke-dashoffset: 0; stroke: #7a7a7a; stroke-width: 0.75"/>
   </g>
   <g id="matplotlib.axis_3">
    <g id="xtick_4">
     <g id="line2d_10">
      <g>
       <use xlink:href="#m5fb48592a5" x="215.943709" y="166.208849" style="fill: #222222; stroke: #222222; stroke-width: 0.65"/>
      </g>
     </g>
     <g id="text_12">
      <text style="font-size: 7px; font-family: 'Liberation Sans', 'Arial', 'Helvetica', 'DejaVu Sans', sans-serif; text-anchor: middle; fill: #222222" x="215.943709" y="177.719318" transform="rotate(-0 215.943709 177.719318)">0.0</text>
     </g>
    </g>
    <g id="xtick_5">
     <g id="line2d_11">
      <g>
       <use xlink:href="#m5fb48592a5" x="286.727563" y="166.208849" style="fill: #222222; stroke: #222222; stroke-width: 0.65"/>
      </g>
     </g>
     <g id="text_13">
      <text style="font-size: 7px; font-family: 'Liberation Sans', 'Arial', 'Helvetica', 'DejaVu Sans', sans-serif; text-anchor: middle; fill: #222222" x="286.727563" y="177.719318" transform="rotate(-0 286.727563 177.719318)">0.5</text>
     </g>
    </g>
    <g id="xtick_6">
     <g id="line2d_12">
      <g>
       <use xlink:href="#m5fb48592a5" x="357.511417" y="166.208849" style="fill: #222222; stroke: #222222; stroke-width: 0.65"/>
      </g>
     </g>
     <g id="text_14">
      <text style="font-size: 7px; font-family: 'Liberation Sans', 'Arial', 'Helvetica', 'DejaVu Sans', sans-serif; text-anchor: middle; fill: #222222" x="357.511417" y="177.719318" transform="rotate(-0 357.511417 177.719318)">1.0</text>
     </g>
    </g>
    <g id="text_15">
     <text style="font-size: 7.5px; font-family: 'Liberation Sans', 'Arial', 'Helvetica', 'DejaVu Sans', sans-serif; text-anchor: middle; fill: #222222" x="286.727563" y="188.478928" transform="rotate(-0 286.727563 188.478928)">Mean predicted probability</text>
    </g>
   </g>
   <g id="matplotlib.axis_4">
    <g id="ytick_4">
     <g id="line2d_13">
      <g>
       <use xlink:href="#mcd6b163740" x="213.112355" y="163.377495" style="fill: #222222; stroke: #222222; stroke-width: 0.65"/>
      </g>
     </g>
    </g>
    <g id="ytick_5">
     <g id="line2d_14">
      <g>
       <use xlink:href="#mcd6b163740" x="213.112355" y="92.593641" style="fill: #222222; stroke: #222222; stroke-width: 0.65"/>
      </g>
     </g>
    </g>
    <g id="ytick_6">
     <g id="line2d_15">
      <g>
       <use xlink:href="#mcd6b163740" x="213.112355" y="21.809787" style="fill: #222222; stroke: #222222; stroke-width: 0.65"/>
      </g>
     </g>
    </g>
   </g>
   <g id="line2d_16">
    <path d="M 256.598801 125.036241 
L 266.208947 117.266477 
L 278.356787 106.656968 
L 292.443718 91.258097 
L 307.424408 62.349631 
L 321.387478 35.422067 
L 336.666426 26.865777 
L 346.822107 21.809787 
" clip-path="url(#pe8b09aa000)" style="fill: none; stroke: #3c5488; stroke-width: 1.05; stroke-linecap: square"/>
   </g>
   <g id="patch_6">
    <path d="M 213.112355 166.208849 
L 213.112355 18.978433 
" style="fill: none; stroke: #222222; stroke-width: 0.65; stroke-linejoin: miter; stroke-linecap: square"/>
   </g>
   <g id="patch_7">
    <path d="M 213.112355 166.208849 
L 360.342771 166.208849 
" style="fill: none; stroke: #222222; stroke-width: 0.65; stroke-linejoin: miter; stroke-linecap: square"/>
   </g>
   <g id="PathCollection_2">
    <path d="M 256.598801 126.762528 
C 257.056618 126.762528 257.495745 126.580636 257.81947 126.256911 
C 258.143196 125.933185 258.325088 125.494058 258.325088 125.036241 
C 258.325088 124.578424 258.143196 124.139297 257.81947 123.815572 
C 257.495745 123.491846 257.056618 123.309954 256.598801 123.309954 
C 256.140984 123.309954 255.701857 123.491846 255.378131 123.815572 
C 255.054406 124.139297 254.872514 124.578424 254.872514 125.036241 
C 254.872514 125.494058 255.054406 125.933185 255.378131 126.256911 
C 255.701857 126.580636 256.140984 126.762528 256.598801 126.762528 
z
" clip-path="url(#pe8b09aa000)" style="fill: #3c5488; stroke: #ffffff; stroke-width: 0.45"/>
    <path d="M 266.208947 120.802011 
C 267.146582 120.802011 268.045939 120.429485 268.708947 119.766477 
C 269.371955 119.103469 269.744481 118.204112 269.744481 117.266477 
C 269.744481 116.328843 269.371955 115.429485 268.708947 114.766477 
C 268.045939 114.103469 267.146582 113.730943 266.208947 113.730943 
C 265.271312 113.730943 264.371955 114.103469 263.708947 114.766477 
C 263.045939 115.429485 262.673413 116.328843 262.673413 117.266477 
C 262.673413 118.204112 263.045939 119.103469 263.708947 119.766477 
C 264.371955 120.429485 265.271312 120.802011 266.208947 120.802011 
z
" clip-path="url(#pe8b09aa000)" style="fill: #3c5488; stroke: #ffffff; stroke-width: 0.45"/>
    <path d="M 278.356787 109.7768 
C 279.184176 109.7768 279.977789 109.448075 280.562841 108.863022 
C 281.147893 108.27797 281.476619 107.484357 281.476619 106.656968 
C 281.476619 105.829579 281.147893 105.035966 280.562841 104.450914 
C 279.977789 103.865862 279.184176 103.537136 278.356787 103.537136 
C 277.529398 103.537136 276.735785 103.865862 276.150733 104.450914 
C 275.56568 105.035966 275.236955 105.829579 275.236955 106.656968 
C 275.236955 107.484357 275.56568 108.27797 276.150733 108.863022 
C 276.735785 109.448075 277.529398 109.7768 278.356787 109.7768 
z
" clip-path="url(#pe8b09aa000)" style="fill: #3c5488; stroke: #ffffff; stroke-width: 0.45"/>
    <path d="M 292.443718 93.427289 
C 293.018994 93.427289 293.570786 93.19873 293.977568 92.791948 
C 294.38435 92.385166 294.61291 91.833374 294.61291 91.258097 
C 294.61291 90.68282 294.38435 90.131028 293.977568 89.724246 
C 293.570786 89.317464 293.018994 89.088904 292.443718 89.088904 
C 291.868441 89.088904 291.316649 89.317464 290.909867 89.724246 
C 290.503085 90.131028 290.274525 90.68282 290.274525 91.258097 
C 290.274525 91.833374 290.503085 92.385166 290.909867 92.791948 
C 291.316649 93.19873 291.868441 93.427289 292.443718 93.427289 
z
" clip-path="url(#pe8b09aa000)" style="fill: #3c5488; stroke: #ffffff; stroke-width: 0.45"/>
    <path d="M 307.424408 64.116831 
C 307.893075 64.116831 308.34261 63.930627 308.674007 63.59923 
C 309.005405 63.267832 309.191608 62.818298 309.191608 62.349631 
C 309.191608 61.880964 309.005405 61.43143 308.674007 61.100032 
C 308.34261 60.768635 307.893075 60.582431 307.424408 60.582431 
C 306.955742 60.582431 306.506207 60.768635 306.17481 61.100032 
C 305.843412 61.43143 305.657209 61.880964 305.657209 62.349631 
C 305.657209 62.818298 305.843412 63.267832 306.17481 63.59923 
C 306.506207 63.930627 306.955742 64.116831 307.424408 64.116831 
z
" clip-path="url(#pe8b09aa000)" style="fill: #3c5488; stroke: #ffffff; stroke-width: 0.45"/>
    <path d="M 321.387478 37.094283 
C 321.830955 37.094283 322.256328 36.918088 322.569913 36.604502 
C 322.883499 36.290917 323.059694 35.865544 323.059694 35.422067 
C 323.059694 34.97859 322.883499 34.553217 322.569913 34.239632 
C 322.256328 33.926047 321.830955 33.749851 321.387478 33.749851 
C 320.944001 33.749851 320.518629 33.926047 320.205043 34.239632 
C 319.891458 34.553217 319.715262 34.97859 319.715262 35.422067 
C 319.715262 35.865544 319.891458 36.290917 320.205043 36.604502 
C 320.518629 36.918088 320.944001 37.094283 321.387478 37.094283 
z
" clip-path="url(#pe8b09aa000)" style="fill: #3c5488; stroke: #ffffff; stroke-width: 0.45"/>
    <path d="M 336.666426 28.469431 
C 337.09172 28.469431 337.499653 28.30046 337.800381 27.999732 
C 338.101109 27.699003 338.27008 27.291071 338.27008 26.865777 
C 338.27008 26.440483 338.101109 26.032551 337.800381 25.731822 
C 337.499653 25.431094 337.09172 25.262123 336.666426 25.262123 
C 336.241132 25.262123 335.8332 25.431094 335.532472 25.731822 
C 335.231743 26.032551 335.062772 26.440483 335.062772 26.865777 
C 335.062772 27.291071 335.231743 27.699003 335.532472 27.999732 
C 335.8332 28.30046 336.241132 28.469431 336.666426 28.469431 
z
" clip-path="url(#pe8b09aa000)" style="fill: #3c5488; stroke: #ffffff; stroke-width: 0.45"/>
    <path d="M 346.822107 23.325064 
C 347.223963 23.325064 347.609414 23.165405 347.893569 22.88125 
C 348.177724 22.597095 348.337383 22.211643 348.337383 21.809787 
C 348.337383 21.407931 348.177724 21.02248 347.893569 20.738325 
C 347.609414 20.45417 347.223963 20.294511 346.822107 20.294511 
C 346.420251 20.294511 346.0348 20.45417 345.750645 20.738325 
C 345.46649 21.02248 345.30683 21.407931 345.30683 21.809787 
C 345.30683 22.211643 345.46649 22.597095 345.750645 22.88125 
C 346.0348 23.165405 346.420251 23.325064 346.822107 23.325064 
z
" clip-path="url(#pe8b09aa000)" style="fill: #3c5488; stroke: #ffffff; stroke-width: 0.45"/>
   </g>
   <g id="text_16">
    <text style="font-size: 7px; font-family: 'Liberation Sans', 'Arial', 'Helvetica', 'DejaVu Sans', sans-serif; text-anchor: start; fill: #222222" x="219.001572" y="32.822727" transform="rotate(-0 219.001572 32.822727)">ECE = 0.041</text>
   </g>
   <g id="text_17">
    <text style="font-weight: 700; font-size: 9.2px; font-family: 'Liberation Sans', 'Arial', 'Helvetica', 'DejaVu Sans', sans-serif; text-anchor: start; fill: #222222" x="189.555489" y="13.785188" transform="rotate(-0 189.555489 13.785188)">b</text>
   </g>
   <g id="text_18">
    <text style="font-size: 8px; font-family: 'Liberation Sans', 'Arial', 'Helvetica', 'DejaVu Sans', sans-serif; text-anchor: start; fill: #222222" x="213.112355" y="15.978433" transform="rotate(-0 213.112355 15.978433)">Temperature-scaled</text>
   </g>
  </g>
  <g id="axes_3">
   <g id="patch_8">
    <path d="M 391.935726 166.208849 
L 539.166142 166.208849 
L 539.166142 18.978433 
L 391.935726 18.978433 
z
" style="fill: #ffffff"/>
   </g>
   <g id="line2d_17">
    <path d="M 394.76708 163.377495 
L 536.334788 21.809787 
" clip-path="url(#pa22a3f8a0d)" style="fill: none; stroke-dasharray: 2.775,1.2; stroke-dashoffset: 0; stroke: #7a7a7a; stroke-width: 0.75"/>
   </g>
   <g id="matplotlib.axis_5">
    <g id="xtick_7">
     <g id="line2d_18">
      <g>
       <use xlink:href="#m5fb48592a5" x="394.76708" y="166.208849" style="fill: #222222; stroke: #222222; stroke-width: 0.65"/>
      </g>
     </g>
     <g id="text_19">
      <text style="font-size: 7px; font-family: 'Liberation Sans', 'Arial', 'Helvetica', 'DejaVu Sans', sans-serif; text-anchor: middle; fill: #222222" x="394.76708" y="177.719318" transform="rotate(-0 394.76708 177.719318)">0.0</text>
     </g>
    </g>
    <g id="xtick_8">
     <g id="line2d_19">
      <g>
       <use xlink:href="#m5fb48592a5" x="465.550934" y="166.208849" style="fill: #222222; stroke: #222222; stroke-width: 0.65"/>
      </g>
     </g>
     <g id="text_20">
      <text style="font-size: 7px; font-family: 'Liberation Sans', 'Arial', 'Helvetica', 'DejaVu Sans', sans-serif; text-anchor: middle; fill: #222222" x="465.550934" y="177.719318" transform="rotate(-0 465.550934 177.719318)">0.5</text>
     </g>
    </g>
    <g id="xtick_9">
     <g id="line2d_20">
      <g>
       <use xlink:href="#m5fb48592a5" x="536.334788" y="166.208849" style="fill: #222222; stroke: #222222; stroke-width: 0.65"/>
      </g>
     </g>
     <g id="text_21">
      <text style="font-size: 7px; font-family: 'Liberation Sans', 'Arial', 'Helvetica', 'DejaVu Sans', sans-serif; text-anchor: middle; fill: #222222" x="536.334788" y="177.719318" transform="rotate(-0 536.334788 177.719318)">1.0</text>
     </g>
    </g>
    <g id="text_22">
     <text style="font-size: 7.5px; font-family: 'Liberation Sans', 'Arial', 'Helvetica', 'DejaVu Sans', sans-serif; text-anchor: middle; fill: #222222" x="465.550934" y="188.478928" transform="rotate(-0 465.550934 188.478928)">Mean predicted probability</text>
    </g>
   </g>
   <g id="matplotlib.axis_6">
    <g id="ytick_7">
     <g id="line2d_21">
      <g>
       <use xlink:href="#mcd6b163740" x="391.935726" y="163.377495" style="fill: #222222; stroke: #222222; stroke-width: 0.65"/>
      </g>
     </g>
    </g>
    <g id="ytick_8">
     <g id="line2d_22">
      <g>
       <use xlink:href="#mcd6b163740" x="391.935726" y="92.593641" style="fill: #222222; stroke: #222222; stroke-width: 0.65"/>
      </g>
     </g>
    </g>
    <g id="ytick_9">
     <g id="line2d_23">
      <g>
       <use xlink:href="#mcd6b163740" x="391.935726" y="21.809787" style="fill: #222222; stroke: #222222; stroke-width: 0.65"/>
      </g>
     </g>
    </g>
   </g>
   <g id="line2d_24">
    <path d="M 396.217151 157.881112 
L 415.507694 135.977294 
L 430.509216 137.637912 
L 443.586453 133.819402 
L 458.638363 118.595873 
L 471.735483 127.385705 
L 486.510989 120.61225 
L 501.325049 113.595444 
L 515.409307 111.798563 
L 533.759703 57.873963 
" clip-path="url(#pa22a3f8a0d)" style="fill: none; stroke: #e64b35; stroke-width: 1.05; stroke-linecap: square"/>
    <defs>
     <path id="m009e8bab46" d="M 0 1.8 
C 0.477366 1.8 0.935244 1.610341 1.272792 1.272792 
C 1.610341 0.935244 1.8 0.477366 1.8 0 
C 1.8 -0.477366 1.610341 -0.935244 1.272792 -1.272792 
C 0.935244 -1.610341 0.477366 -1.8 0 -1.8 
C -0.477366 -1.8 -0.935244 -1.610341 -1.272792 -1.272792 
C -1.610341 -0.935244 -1.8 -0.477366 -1.8 0 
C -1.8 0.477366 -1.610341 0.935244 -1.272792 1.272792 
C -0.935244 1.610341 -0.477366 1.8 0 1.8 
z
" style="stroke: #e64b35; stroke-width: 0.75"/>
    </defs>
    <g clip-path="url(#pa22a3f8a0d)">
     <use xlink:href="#m009e8bab46" x="396.217151" y="157.881112" style="fill: #ffffff; stroke: #e64b35; stroke-width: 0.75"/>
     <use xlink:href="#m009e8bab46" x="415.507694" y="135.977294" style="fill: #ffffff; stroke: #e64b35; stroke-width: 0.75"/>
     <use xlink:href="#m009e8bab46" x="430.509216" y="137.637912" style="fill: #ffffff; stroke: #e64b35; stroke-width: 0.75"/>
     <use xlink:href="#m009e8bab46" x="443.586453" y="133.819402" style="fill: #ffffff; stroke: #e64b35; stroke-width: 0.75"/>
     <use xlink:href="#m009e8bab46" x="458.638363" y="118.595873" style="fill: #ffffff; stroke: #e64b35; stroke-width: 0.75"/>
     <use xlink:href="#m009e8bab46" x="471.735483" y="127.385705" style="fill: #ffffff; stroke: #e64b35; stroke-width: 0.75"/>
     <use xlink:href="#m009e8bab46" x="486.510989" y="120.61225" style="fill: #ffffff; stroke: #e64b35; stroke-width: 0.75"/>
     <use xlink:href="#m009e8bab46" x="501.325049" y="113.595444" style="fill: #ffffff; stroke: #e64b35; stroke-width: 0.75"/>
     <use xlink:href="#m009e8bab46" x="515.409307" y="111.798563" style="fill: #ffffff; stroke: #e64b35; stroke-width: 0.75"/>
     <use xlink:href="#m009e8bab46" x="533.759703" y="57.873963" style="fill: #ffffff; stroke: #e64b35; stroke-width: 0.75"/>
    </g>
   </g>
   <g id="line2d_25">
    <path d="M 401.474436 161.868781 
L 415.322587 155.074005 
L 429.531049 138.105196 
L 443.761908 124.21364 
L 458.185873 99.072164 
L 471.901643 67.032805 
L 486.616233 56.608554 
L 500.363928 33.211214 
L 515.489797 26.865777 
L 525.645478 21.809787 
" clip-path="url(#pa22a3f8a0d)" style="fill: none; stroke: #3c5488; stroke-width: 1.05; stroke-linecap: square"/>
    <defs>
     <path id="mbac3a93974" d="M -1.8 1.8 
L 1.8 1.8 
L 1.8 -1.8 
L -1.8 -1.8 
z
" style="stroke: #3c5488; stroke-width: 0.75; stroke-linejoin: miter"/>
    </defs>
    <g clip-path="url(#pa22a3f8a0d)">
     <use xlink:href="#mbac3a93974" x="401.474436" y="161.868781" style="fill: #ffffff; stroke: #3c5488; stroke-width: 0.75; stroke-linejoin: miter"/>
     <use xlink:href="#mbac3a93974" x="415.322587" y="155.074005" style="fill: #ffffff; stroke: #3c5488; stroke-width: 0.75; stroke-linejoin: miter"/>
     <use xlink:href="#mbac3a93974" x="429.531049" y="138.105196" style="fill: #ffffff; stroke: #3c5488; stroke-width: 0.75; stroke-linejoin: miter"/>
     <use xlink:href="#mbac3a93974" x="443.761908" y="124.21364" style="fill: #ffffff; stroke: #3c5488; stroke-width: 0.75; stroke-linejoin: miter"/>
     <use xlink:href="#mbac3a93974" x="458.185873" y="99.072164" style="fill: #ffffff; stroke: #3c5488; stroke-width: 0.75; stroke-linejoin: miter"/>
     <use xlink:href="#mbac3a93974" x="471.901643" y="67.032805" style="fill: #ffffff; stroke: #3c5488; stroke-width: 0.75; stroke-linejoin: miter"/>
     <use xlink:href="#mbac3a93974" x="486.616233" y="56.608554" style="fill: #ffffff; stroke: #3c5488; stroke-width: 0.75; stroke-linejoin: miter"/>
     <use xlink:href="#mbac3a93974" x="500.363928" y="33.211214" style="fill: #ffffff; stroke: #3c5488; stroke-width: 0.75; stroke-linejoin: miter"/>
     <use xlink:href="#mbac3a93974" x="515.489797" y="26.865777" style="fill: #ffffff; stroke: #3c5488; stroke-width: 0.75; stroke-linejoin: miter"/>
     <use xlink:href="#mbac3a93974" x="525.645478" y="21.809787" style="fill: #ffffff; stroke: #3c5488; stroke-width: 0.75; stroke-linejoin: miter"/>
    </g>
   </g>
   <g id="line2d_26">
    <path d="M 399.012429 160.089112 
L 415.224692 141.529251 
L 430.002485 130.419934 
L 443.331549 122.295102 
L 458.444177 108.483894 
L 472.657009 90.124437 
L 486.300515 66.947317 
L 501.513071 56.270348 
L 515.533426 42.654113 
L 530.178909 25.164472 
" clip-path="url(#pa22a3f8a0d)" style="fill: none; stroke: #00a087; stroke-width: 1.05; stroke-linecap: square"/>
    <defs>
     <path id="m8a91721cb3" d="M 0 -1.8 
L -1.8 1.8 
L 1.8 1.8 
z
" style="stroke: #00a087; stroke-width: 0.75; stroke-linejoin: miter"/>
    </defs>
    <g clip-path="url(#pa22a3f8a0d)">
     <use xlink:href="#m8a91721cb3" x="399.012429" y="160.089112" style="fill: #ffffff; stroke: #00a087; stroke-width: 0.75; stroke-linejoin: miter"/>
     <use xlink:href="#m8a91721cb3" x="415.224692" y="141.529251" style="fill: #ffffff; stroke: #00a087; stroke-width: 0.75; stroke-linejoin: miter"/>
     <use xlink:href="#m8a91721cb3" x="430.002485" y="130.419934" style="fill: #ffffff; stroke: #00a087; stroke-width: 0.75; stroke-linejoin: miter"/>
     <use xlink:href="#m8a91721cb3" x="443.331549" y="122.295102" style="fill: #ffffff; stroke: #00a087; stroke-width: 0.75; stroke-linejoin: miter"/>
     <use xlink:href="#m8a91721cb3" x="458.444177" y="108.483894" style="fill: #ffffff; stroke: #00a087; stroke-width: 0.75; stroke-linejoin: miter"/>
     <use xlink:href="#m8a91721cb3" x="472.657009" y="90.124437" style="fill: #ffffff; stroke: #00a087; stroke-width: 0.75; stroke-linejoin: miter"/>
     <use xlink:href="#m8a91721cb3" x="486.300515" y="66.947317" style="fill: #ffffff; stroke: #00a087; stroke-width: 0.75; stroke-linejoin: miter"/>
     <use xlink:href="#m8a91721cb3" x="501.513071" y="56.270348" style="fill: #ffffff; stroke: #00a087; stroke-width: 0.75; stroke-linejoin: miter"/>
     <use xlink:href="#m8a91721cb3" x="515.533426" y="42.654113" style="fill: #ffffff; stroke: #00a087; stroke-width: 0.75; stroke-linejoin: miter"/>
     <use xlink:href="#m8a91721cb3" x="530.178909" y="25.164472" style="fill: #ffffff; stroke: #00a087; stroke-width: 0.75; stroke-linejoin: miter"/>
    </g>
   </g>
   <g id="patch_9">
    <path d="M 391.935726 166.208849 
L 391.935726 18.978433 
" style="fill: none; stroke: #222222; stroke-width: 0.65; stroke-linejoin: miter; stroke-linecap: square"/>
   </g>
   <g id="patch_10">
    <path d="M 391.935726 166.208849 
L 539.166142 166.208849 
" style="fill: none; stroke: #222222; stroke-width: 0.65; stroke-linejoin: miter; stroke-linecap: square"/>
   </g>
   <g id="text_23">
    <text style="font-weight: 700; font-size: 9.2px; font-family: 'Liberation Sans', 'Arial', 'Helvetica', 'DejaVu Sans', sans-serif; text-anchor: start; fill: #222222" x="368.378859" y="13.785187" transform="rotate(-0 368.378859 13.785187)">c</text>
   </g>
   <g id="text_24">
    <text style="font-size: 6.5px; font-family: 'Liberation Sans', 'Arial', 'Helvetica', 'DejaVu Sans', sans-serif; text-anchor: start; fill: #7a7a7a" x="397.824943" y="29.520228" transform="rotate(-0 397.824943 29.520228)">ECE</text>
   </g>
   <g id="text_25">
    <text style="font-size: 6.5px; font-family: 'Liberation Sans', 'Arial', 'Helvetica', 'DejaVu Sans', sans-serif; text-anchor: start; fill: #e64b35" x="397.824943" y="44.24327" transform="rotate(-0 397.824943 44.24327)">Raw: 0.105</text>
   </g>
   <g id="text_26">
    <text style="font-size: 6.5px; font-family: 'Liberation Sans', 'Arial', 'Helvetica', 'DejaVu Sans', sans-serif; text-anchor: start; fill: #3c5488" x="397.824943" y="58.249456" transform="rotate(-0 397.824943 58.249456)">Temperature: 0.067</text>
   </g>
   <g id="text_27">
    <text style="font-size: 6.5px; font-family: 'Liberation Sans', 'Arial', 'Helvetica', 'DejaVu Sans', sans-serif; text-anchor: start; fill: #00a087" x="397.824943" y="72.217049" transform="rotate(-0 397.824943 72.217049)">Task-calibrated: 0.019</text>
   </g>
   <g id="text_28">
    <text style="font-size: 8px; font-family: 'Liberation Sans', 'Arial', 'Helvetica', 'DejaVu Sans', sans-serif; text-anchor: start; fill: #222222" x="391.935726" y="15.978433" transform="rotate(-0 391.935726 15.978433)">Risk-proxy class</text>
   </g>
  </g>
 </g>
 <defs>
  <clipPath id="p6a67e0e879">
   <rect x="34.288984" y="18.978433" width="147.230416" height="147.230416"/>
  </clipPath>
  <clipPath id="pe8b09aa000">
   <rect x="213.112355" y="18.978433" width="147.230416" height="147.230416"/>
  </clipPath>
  <clipPath id="pa22a3f8a0d">
   <rect x="391.935726" y="18.978433" width="147.230416" height="147.230416"/>
  </clipPath>
 </defs>
</svg>
