<?xml version="1.0" encoding="utf-8" standalone="no"?>
<!DOCTYPE svg PUBLIC "-//W3C//DTD SVG 1.1//EN"
  "http://www.w3.org/Graphics/SVG/1.1/DTD/svg11.dtd">
<svg xmlns:xlink="http://www.w3.org/1999/xlink" width="491.684031pt" height="153.528658pt" viewBox="0 0 491.684031 153.528658" xmlns="http://www.w3.org/2000/svg" version="1.1">
 <metadata>
  <rdf:RDF xmlns:dc="http://purl.org/dc/elements/1.1/" xmlns:cc="http://creativecommons.org/ns#" xmlns:rdf="http://www.w3.org/1999/02/22-rdf-syntax-ns#">
   <cc:Work>
    <dc:type rdf:resource="http://purl.org/dc/dcmitype/StillImage"/>
    <dc:date>2026-06-18T13:56:35.806911</dc:date>
    <dc:format>image/svg+xml</dc:format>
    <dc:creator>
     <cc:Agent>
      <dc:title>Matplotlib v3.10.5, https://matplotlib.org/</dc:title>
     </cc:Agent>
    </dc:creator>
   </cc:Work>
  </rdf:RDF>
 </metadata>
 <defs>
  <style type="text/css">*{stroke-linejoin: round; stroke-linecap: butt}</style>
 </defs>
 <g id="figure_1">
  <g id="patch_1">
   <path d="M 0 153.528658 
L 491.684031 153.528658 
L 491.684031 0 
L 0 0 
z
" style="fill: #ffffff"/>
  </g>
  <g id="axes_1">
   <g id="patch_2">
    <path d="M 28.888984 127.880064 
L 145.629784 127.880064 
L 145.629784 11.139264 
L 28.888984 11.139264 
z
" style="fill: #ffffff"/>
   </g>
   <g id="line2d_1">
    <path d="M 28.888984 127.880064 
L 145.629784 11.139264 
" clip-path="url(#pa0202df4ad)" style="fill: none; stroke-dasharray: 2.775,1.2; stroke-dashoffset: 0; stroke: #7a7a7a; stroke-width: 0.75"/>
   </g>
   <g id="matplotlib.axis_1">
    <g id="xtick_1">
     <g id="line2d_2">
      <defs>
       <path id="m942646a85a" d="M 0 0 
L 0 3 
" style="stroke: #222222; stroke-width: 0.65"/>
      </defs>
      <g>
       <use xlink:href="#m942646a85a" x="28.888984" y="127.880064" style="fill: #222222; stroke: #222222; stroke-width: 0.65"/>
      </g>
     </g>
     <g id="text_1">
      <text style="font-size: 7px; font-family: 'Liberation Sans', 'Arial', 'Helvetica', 'DejaVu Sans', sans-serif; text-anchor: middle; fill: #222222" x="28.888984" y="139.390533" transform="rotate(-0 28.888984 139.390533)">0.0</text>
     </g>
    </g>
    <g id="xtick_2">
     <g id="line2d_3">
      <g>
       <use xlink:href="#m942646a85a" x="87.259384" y="127.880064" style="fill: #222222; stroke: #222222; stroke-width: 0.65"/>
      </g>
     </g>
     <g id="text_2">
      <text style="font-size: 7px; font-family: 'Liberation Sans', 'Arial', 'Helvetica', 'DejaVu Sans', sans-serif; text-anchor: middle; fill: #222222" x="87.259384" y="139.390533" transform="rotate(-0 87.259384 139.390533)">0.5</text>
     </g>
    </g>
    <g id="xtick_3">
     <g id="line2d_4">
      <g>
       <use xlink:href="#m942646a85a" x="145.629784" y="127.880064" style="fill: #222222; stroke: #222222; stroke-width: 0.65"/>
      </g>
     </g>
     <g id="text_3">
      <text style="font-size: 7px; font-family: 'Liberation Sans', 'Arial', 'Helvetica', 'DejaVu Sans', sans-serif; text-anchor: middle; fill: #222222" x="145.629784" y="139.390533" transform="rotate(-0 145.629784 139.390533)">1.0</text>
     </g>
    </g>
    <g id="text_4">
     <text style="font-size: 7.5px; font-family: 'Liberation Sans', 'Arial', 'Helvetica', 'DejaVu Sans', sans-serif; text-anchor: middle; fill: #222222" x="87.259384" y="150.150142" transform="rotate(-0 87.259384 150.150142)">Mean predicted probability</text>
    </g>
   </g>
   <g id="matplotlib.axis_2">
    <g id="ytick_1">
     <g id="line2d_5">
      <defs>
       <path id="m06726cd15d" d="M 0 0 
L -3 0 
" style="stroke: #222222; stroke-width: 0.65"/>
      </defs>
      <g>
       <use xlink:href="#m06726cd15d" x="28.888984" y="127.880064" style="fill: #222222; stroke: #222222; stroke-width: 0.65"/>
      </g>
     </g>
     <g id="text_5">
      <text style="font-size: 7px; font-family: 'Liberation Sans', 'Arial', 'Helvetica', 'DejaVu Sans', sans-serif; text-anchor: end; fill: #222222" x="22.388984" y="130.385298" transform="rotate(-0 22.388984 130.385298)">0.0</text>
     </g>
    </g>
    <g id="ytick_2">
     <g id="line2d_6">
      <g>
       <use xlink:href="#m06726cd15d" x="28.888984" y="69.509664" style="fill: #222222; stroke: #222222; stroke-width: 0.65"/>
      </g>
     </g>
     <g id="text_6">
      <text style="font-size: 7px; font-family: 'Liberation Sans', 'Arial', 'Helvetica', 'DejaVu Sans', sans-serif; text-anchor: end; fill: #222222" x="22.388984" y="72.014898" transform="rotate(-0 22.388984 72.014898)">0.5</text>
     </g>
    </g>
    <g id="ytick_3">
     <g id="line2d_7">
      <g>
       <use xlink:href="#m06726cd15d" x="28.888984" y="11.139264" style="fill: #222222; stroke: #222222; stroke-width: 0.65"/>
      </g>
     </g>
     <g id="text_7">
      <text style="font-size: 7px; font-family: 'Liberation Sans', 'Arial', 'Helvetica', 'DejaVu Sans', sans-serif; text-anchor: end; fill: #222222" x="22.388984" y="13.644498" transform="rotate(-0 22.388984 13.644498)">1.0</text>
     </g>
    </g>
    <g id="text_8">
     <text style="font-size: 7.5px; font-family: 'Liberation Sans', 'Arial', 'Helvetica', 'DejaVu Sans', sans-serif; text-anchor: middle; fill: #222222" x="7.168359" y="69.509664" transform="rotate(-90 7.168359 69.509664)">Observed event rate</text>
    </g>
   </g>
   <g id="line2d_8">
    <path d="M 63.197288 88.966464 
L 71.618183 88.612704 
L 82.618469 89.829293 
L 93.111557 91.113782 
L 104.7104 87.557827 
L 116.638285 87.282702 
L 128.187765 82.041162 
L 141.933522 58.048116 
" clip-path="url(#pa0202df4ad)" style="fill: none; stroke: #e64b35; stroke-width: 1.05; stroke-linecap: square"/>
   </g>
   <g id="patch_3">
    <path d="M 28.888984 127.880064 
L 28.888984 11.139264 
" style="fill: none; stroke: #222222; stroke-width: 0.65; stroke-linejoin: miter; stroke-linecap: square"/>
   </g>
   <g id="patch_4">
    <path d="M 28.888984 127.880064 
L 145.629784 127.880064 
" style="fill: none; stroke: #222222; stroke-width: 0.65; stroke-linejoin: miter; stroke-linecap: square"/>
   </g>
   <g id="PathCollection_1">
    <path d="M 63.197288 90.3879 
C 63.574258 90.3879 63.935838 90.238129 64.202396 89.971571 
C 64.468953 89.705014 64.618725 89.343433 64.618725 88.966464 
C 64.618725 88.589495 64.468953 88.227914 64.202396 87.961357 
C 63.935838 87.694799 63.574258 87.545028 63.197288 87.545028 
C 62.820319 87.545028 62.458739 87.694799 62.192181 87.961357 
C 61.925624 88.227914 61.775852 88.589495 61.775852 88.966464 
C 61.775852 89.343433 61.925624 89.705014 62.192181 89.971571 
C 62.458739 90.238129 62.820319 90.3879 63.197288 90.3879 
z
" clip-path="url(#pa0202df4ad)" style="fill: #e64b35; stroke: #ffffff; stroke-width: 0.45"/>
    <path d="M 71.618183 90.27131 
C 72.05805 90.27131 72.479961 90.096549 72.790994 89.785516 
C 73.102028 89.474483 73.276789 89.052572 73.276789 88.612704 
C 73.276789 88.172836 73.102028 87.750925 72.790994 87.439892 
C 72.479961 87.128859 72.05805 86.954098 71.618183 86.954098 
C 71.178315 86.954098 70.756404 87.128859 70.445371 87.439892 
C 70.134337 87.750925 69.959576 88.172836 69.959576 88.612704 
C 69.959576 89.052572 70.134337 89.474483 70.445371 89.785516 
C 70.756404 90.096549 71.178315 90.27131 71.618183 90.27131 
z
" clip-path="url(#pa0202df4ad)" style="fill: #e64b35; stroke: #ffffff; stroke-width: 0.45"/>
    <path d="M 82.618469 92.082957 
C 83.216148 92.082957 83.789427 91.845496 84.21205 91.422874 
C 84.634672 91.000251 84.872133 90.426972 84.872133 89.829293 
C 84.872133 89.231615 84.634672 88.658335 84.21205 88.235713 
C 83.789427 87.81309 83.216148 87.57563 82.618469 87.57563 
C 82.020791 87.57563 81.447511 87.81309 81.024889 88.235713 
C 80.602266 88.658335 80.364806 89.231615 80.364806 89.829293 
C 80.364806 90.426972 80.602266 91.000251 81.024889 91.422874 
C 81.447511 91.845496 82.020791 92.082957 82.618469 92.082957 
z
" clip-path="url(#pa0202df4ad)" style="fill: #e64b35; stroke: #ffffff; stroke-width: 0.45"/>
    <path d="M 93.111557 93.773199 
C 93.816843 93.773199 94.493337 93.492986 94.992049 92.994274 
C 95.490761 92.495562 95.770974 91.819068 95.770974 91.113782 
C 95.770974 90.408497 95.490761 89.732003 94.992049 89.233291 
C 94.493337 88.734579 93.816843 88.454366 93.111557 88.454366 
C 92.406272 88.454366 91.729778 88.734579 91.231066 89.233291 
C 90.732354 89.732003 90.452141 90.408497 90.452141 91.113782 
C 90.452141 91.819068 90.732354 92.495562 91.231066 92.994274 
C 91.729778 93.492986 92.406272 93.773199 93.111557 93.773199 
z
" clip-path="url(#pa0202df4ad)" style="fill: #e64b35; stroke: #ffffff; stroke-width: 0.45"/>
    <path d="M 104.7104 90.112496 
C 105.387906 90.112496 106.037755 89.84332 106.516824 89.364251 
C 106.995893 88.885181 107.265069 88.235333 107.265069 87.557827 
C 107.265069 86.880321 106.995893 86.230472 106.516824 85.751403 
C 106.037755 85.272334 105.387906 85.003158 104.7104 85.003158 
C 104.032894 85.003158 103.383046 85.272334 102.903977 85.751403 
C 102.424908 86.230472 102.155732 86.880321 102.155732 87.557827 
C 102.155732 88.235333 102.424908 88.885181 102.903977 89.364251 
C 103.383046 89.84332 104.032894 90.112496 104.7104 90.112496 
z
" clip-path="url(#pa0202df4ad)" style="fill: #e64b35; stroke: #ffffff; stroke-width: 0.45"/>
    <path d="M 116.638285 89.784717 
C 117.301828 89.784717 117.938282 89.521089 118.407477 89.051894 
C 118.876672 88.582699 119.1403 87.946245 119.1403 87.282702 
C 119.1403 86.61916 118.876672 85.982706 118.407477 85.513511 
C 117.938282 85.044316 117.301828 84.780688 116.638285 84.780688 
C 115.974743 84.780688 115.338289 85.044316 114.869094 85.513511 
C 114.399899 85.982706 114.136271 86.61916 114.136271 87.282702 
C 114.136271 87.946245 114.399899 88.582699 114.869094 89.051894 
C 115.338289 89.521089 115.974743 89.784717 116.638285 89.784717 
z
" clip-path="url(#pa0202df4ad)" style="fill: #e64b35; stroke: #ffffff; stroke-width: 0.45"/>
    <path d="M 128.187765 84.655268 
C 128.881034 84.655268 129.546002 84.37983 130.036217 83.889614 
C 130.526432 83.399399 130.801871 82.734431 130.801871 82.041162 
C 130.801871 81.347893 130.526432 80.682925 130.036217 80.19271 
C 129.546002 79.702495 128.881034 79.427056 128.187765 79.427056 
C 127.494496 79.427056 126.829528 79.702495 126.339313 80.19271 
C 125.849098 80.682925 125.573659 81.347893 125.573659 82.041162 
C 125.573659 82.734431 125.849098 83.399399 126.339313 83.889614 
C 126.829528 84.37983 127.494496 84.655268 128.187765 84.655268 
z
" clip-path="url(#pa0202df4ad)" style="fill: #e64b35; stroke: #ffffff; stroke-width: 0.45"/>
    <path d="M 141.933522 61.58365 
C 142.871156 61.58365 143.770514 61.211124 144.433522 60.548116 
C 145.096529 59.885108 145.469056 58.985751 145.469056 58.048116 
C 145.469056 57.110481 145.096529 56.211124 144.433522 55.548116 
C 143.770514 54.885108 142.871156 54.512582 141.933522 54.512582 
C 140.995887 54.512582 140.096529 54.885108 139.433522 55.548116 
C 138.770514 56.211124 138.397988 57.110481 138.397988 58.048116 
C 138.397988 58.985751 138.770514 59.885108 139.433522 60.548116 
C 140.096529 61.211124 140.995887 61.58365 141.933522 61.58365 
z
" clip-path="url(#pa0202df4ad)" style="fill: #e64b35; stroke: #ffffff; stroke-width: 0.45"/>
   </g>
   <g id="text_9">
    <text style="font-size: 7px; font-family: 'Liberation Sans', 'Arial', 'Helvetica', 'DejaVu Sans', sans-serif; text-anchor: start; fill: #222222" x="33.558616" y="23.154181" transform="rotate(-0 33.558616 23.154181)">ECE = 0.328</text>
   </g>
   <g id="text_10">
    <text style="font-weight: 700; font-size: 9.2px; font-family: 'Liberation Sans', 'Arial', 'Helvetica', 'DejaVu Sans', sans-serif; text-anchor: start; fill: #222222" x="10.210456" y="8.385187" transform="rotate(-0 10.210456 8.385187)">a</text>
   </g>
   <g id="text_11">
    <text style="font-size: 8px; font-family: 'Liberation Sans', 'Arial', 'Helvetica', 'DejaVu Sans', sans-serif; text-anchor: start; fill: #222222" x="28.888984" y="8.139264" transform="rotate(-0 28.888984 8.139264)">Raw top-label</text>
   </g>
  </g>
  <g id="axes_2">
   <g id="patch_5">
    <path d="M 198.583608 127.880064 
L 315.324408 127.880064 
L 315.324408 11.139264 
L 198.583608 11.139264 
z
" style="fill: #ffffff"/>
   </g>
   <g id="line2d_9">
    <path d="M 198.583608 127.880064 
L 315.324408 11.139264 
" clip-path="url(#p38adf6f2c6)" style="fill: none; stroke-dasharray: 2.775,1.2; stroke-dashoffset: 0; stroke: #7a7a7a; stroke-width: 0.75"/>
   </g>
   <g id="matplotlib.axis_3">
    <g id="xtick_4">
     <g id="line2d_10">
      <g>
       <use xlink:href="#m942646a85a" x="198.583608" y="127.880064" style="fill: #222222; stroke: #222222; stroke-width: 0.65"/>
      </g>
     </g>
     <g id="text_12">
      <text style="font-size: 7px; font-family: 'Liberation Sans', 'Arial', 'Helvetica', 'DejaVu Sans', sans-serif; text-anchor: middle; fill: #222222" x="198.583608" y="139.390533" transform="rotate(-0 198.583608 139.390533)">0.0</text>
     </g>
    </g>
    <g id="xtick_5">
     <g id="line2d_11">
      <g>
       <use xlink:href="#m942646a85a" x="256.954008" y="127.880064" style="fill: #222222; stroke: #222222; stroke-width: 0.65"/>
      </g>
     </g>
     <g id="text_13">
      <text style="font-size: 7px; font-family: 'Liberation Sans', 'Arial', 'Helvetica', 'DejaVu Sans', sans-serif; text-anchor: middle; fill: #222222" x="256.954008" y="139.390533" transform="rotate(-0 256.954008 139.390533)">0.5</text>
     </g>
    </g>
    <g id="xtick_6">
     <g id="line2d_12">
      <g>
       <use xlink:href="#m942646a85a" x="315.324408" y="127.880064" style="fill: #222222; stroke: #222222; stroke-width: 0.65"/>
      </g>
     </g>
     <g id="text_14">
      <text style="font-size: 7px; font-family: 'Liberation Sans', 'Arial', 'Helvetica', 'DejaVu Sans', sans-serif; text-anchor: middle; fill: #222222" x="315.324408" y="139.390533" transform="rotate(-0 315.324408 139.390533)">1.0</text>
     </g>
    </g>
    <g id="text_15">
     <text style="font-size: 7.5px; font-family: 'Liberation Sans', 'Arial', 'Helvetica', 'DejaVu Sans', sans-serif; text-anchor: middle; fill: #222222" x="256.954008" y="150.150142" transform="rotate(-0 256.954008 150.150142)">Mean predicted probability</text>
    </g>
   </g>
   <g id="matplotlib.axis_4">
    <g id="ytick_4">
     <g id="line2d_13">
      <g>
       <use xlink:href="#m06726cd15d" x="198.583608" y="127.880064" style="fill: #222222; stroke: #222222; stroke-width: 0.65"/>
      </g>
     </g>
    </g>
    <g id="ytick_5">
     <g id="line2d_14">
      <g>
       <use xlink:href="#m06726cd15d" x="198.583608" y="69.509664" style="fill: #222222; stroke: #222222; stroke-width: 0.65"/>
      </g>
     </g>
    </g>
    <g id="ytick_6">
     <g id="line2d_15">
      <g>
       <use xlink:href="#m06726cd15d" x="198.583608" y="11.139264" style="fill: #222222; stroke: #222222; stroke-width: 0.65"/>
      </g>
     </g>
    </g>
   </g>
   <g id="line2d_16">
    <path d="M 232.108964 96.262764 
L 240.033767 89.855593 
L 250.051225 81.106687 
L 261.667713 68.408336 
L 274.021221 44.569584 
L 285.535569 22.364341 
L 298.135029 15.308578 
L 306.509695 11.139264 
" clip-path="url(#p38adf6f2c6)" style="fill: none; stroke: #3c5488; stroke-width: 1.05; stroke-linecap: square"/>
   </g>
   <g id="patch_6">
    <path d="M 198.583608 127.880064 
L 198.583608 11.139264 
" style="fill: none; stroke: #222222; stroke-width: 0.65; stroke-linejoin: miter; stroke-linecap: square"/>
   </g>
   <g id="patch_7">
    <path d="M 198.583608 127.880064 
L 315.324408 127.880064 
" style="fill: none; stroke: #222222; stroke-width: 0.65; stroke-linejoin: miter; stroke-linecap: square"/>
   </g>
   <g id="PathCollection_2">
    <path d="M 232.108964 97.989051 
C 232.566781 97.989051 233.005909 97.807159 233.329634 97.483434 
C 233.653359 97.159708 233.835252 96.720581 233.835252 96.262764 
C 233.835252 95.804947 233.653359 95.36582 233.329634 95.042094 
C 233.005909 94.718369 232.566781 94.536477 232.108964 94.536477 
C 231.651148 94.536477 231.21202 94.718369 230.888295 95.042094 
C 230.56457 95.36582 230.382677 95.804947 230.382677 96.262764 
C 230.382677 96.720581 230.56457 97.159708 230.888295 97.483434 
C 231.21202 97.807159 231.651148 97.989051 232.108964 97.989051 
z
" clip-path="url(#p38adf6f2c6)" style="fill: #3c5488; stroke: #ffffff; stroke-width: 0.45"/>
    <path d="M 240.033767 93.391127 
C 240.971402 93.391127 241.870759 93.018601 242.533767 92.355593 
C 243.196775 91.692586 243.569301 90.793228 243.569301 89.855593 
C 243.569301 88.917959 243.196775 88.018601 242.533767 87.355593 
C 241.870759 86.692586 240.971402 86.32006 240.033767 86.32006 
C 239.096132 86.32006 238.196775 86.692586 237.533767 87.355593 
C 236.870759 88.018601 236.498233 88.917959 236.498233 89.855593 
C 236.498233 90.793228 236.870759 91.692586 237.533767 92.355593 
C 238.196775 93.018601 239.096132 93.391127 240.033767 93.391127 
z
" clip-path="url(#p38adf6f2c6)" style="fill: #3c5488; stroke: #ffffff; stroke-width: 0.45"/>
    <path d="M 250.051225 84.226519 
C 250.878614 84.226519 251.672227 83.897794 252.257279 83.312741 
C 252.842331 82.727689 253.171057 81.934076 253.171057 81.106687 
C 253.171057 80.279298 252.842331 79.485686 252.257279 78.900633 
C 251.672227 78.315581 250.878614 77.986856 250.051225 77.986856 
C 249.223836 77.986856 248.430223 78.315581 247.845171 78.900633 
C 247.260118 79.485686 246.931393 80.279298 246.931393 81.106687 
C 246.931393 81.934076 247.260118 82.727689 247.845171 83.312741 
C 248.430223 83.897794 249.223836 84.226519 250.051225 84.226519 
z
" clip-path="url(#p38adf6f2c6)" style="fill: #3c5488; stroke: #ffffff; stroke-width: 0.45"/>
    <path d="M 261.667713 70.577528 
C 262.242989 70.577528 262.794781 70.348968 263.201563 69.942186 
C 263.608345 69.535404 263.836905 68.983612 263.836905 68.408336 
C 263.836905 67.833059 263.608345 67.281267 263.201563 66.874485 
C 262.794781 66.467703 262.242989 66.239143 261.667713 66.239143 
C 261.092436 66.239143 260.540644 66.467703 260.133862 66.874485 
C 259.72708 67.281267 259.49852 67.833059 259.49852 68.408336 
C 259.49852 68.983612 259.72708 69.535404 260.133862 69.942186 
C 260.540644 70.348968 261.092436 70.577528 261.667713 70.577528 
z
" clip-path="url(#p38adf6f2c6)" style="fill: #3c5488; stroke: #ffffff; stroke-width: 0.45"/>
    <path d="M 274.021221 46.336784 
C 274.489888 46.336784 274.939422 46.15058 275.27082 45.819183 
C 275.602217 45.487785 275.788421 45.038251 275.788421 44.569584 
C 275.788421 44.100917 275.602217 43.651383 275.27082 43.319985 
C 274.939422 42.988588 274.489888 42.802384 274.021221 42.802384 
C 273.552554 42.802384 273.10302 42.988588 272.771622 43.319985 
C 272.440225 43.651383 272.254021 44.100917 272.254021 44.569584 
C 272.254021 45.038251 272.440225 45.487785 272.771622 45.819183 
C 273.10302 46.15058 273.552554 46.336784 274.021221 46.336784 
z
" clip-path="url(#p38adf6f2c6)" style="fill: #3c5488; stroke: #ffffff; stroke-width: 0.45"/>
    <path d="M 285.535569 24.036557 
C 285.979046 24.036557 286.404419 23.860361 286.718004 23.546776 
C 287.03159 23.233191 287.207785 22.807818 287.207785 22.364341 
C 287.207785 21.920864 287.03159 21.495491 286.718004 21.181906 
C 286.404419 20.86832 285.979046 20.692125 285.535569 20.692125 
C 285.092093 20.692125 284.66672 20.86832 284.353134 21.181906 
C 284.039549 21.495491 283.863354 21.920864 283.863354 22.364341 
C 283.863354 22.807818 284.039549 23.233191 284.353134 23.546776 
C 284.66672 23.860361 285.092093 24.036557 285.535569 24.036557 
z
" clip-path="url(#p38adf6f2c6)" style="fill: #3c5488; stroke: #ffffff; stroke-width: 0.45"/>
    <path d="M 298.135029 16.912232 
C 298.560323 16.912232 298.968256 16.743261 299.268984 16.442533 
C 299.569712 16.141805 299.738683 15.733872 299.738683 15.308578 
C 299.738683 14.883284 299.569712 14.475352 299.268984 14.174624 
C 298.968256 13.873895 298.560323 13.704924 298.135029 13.704924 
C 297.709735 13.704924 297.301803 13.873895 297.001075 14.174624 
C 296.700346 14.475352 296.531375 14.883284 296.531375 15.308578 
C 296.531375 15.733872 296.700346 16.141805 297.001075 16.442533 
C 297.301803 16.743261 297.709735 16.912232 298.135029 16.912232 
z
" clip-path="url(#p38adf6f2c6)" style="fill: #3c5488; stroke: #ffffff; stroke-width: 0.45"/>
    <path d="M 306.509695 12.65454 
C 306.911551 12.65454 307.297002 12.494881 307.581157 12.210726 
C 307.865312 11.926571 308.024971 11.54112 308.024971 11.139264 
C 308.024971 10.737408 307.865312 10.351957 307.581157 10.067802 
C 307.297002 9.783647 306.911551 9.623988 306.509695 9.623988 
C 306.107839 9.623988 305.722388 9.783647 305.438233 10.067802 
C 305.154078 10.351957 304.994419 10.737408 304.994419 11.139264 
C 304.994419 11.54112 305.154078 11.926571 305.438233 12.210726 
C 305.722388 12.494881 306.107839 12.65454 306.509695 12.65454 
z
" clip-path="url(#p38adf6f2c6)" style="fill: #3c5488; stroke: #ffffff; stroke-width: 0.45"/>
   </g>
   <g id="text_16">
    <text style="font-size: 7px; font-family: 'Liberation Sans', 'Arial', 'Helvetica', 'DejaVu Sans', sans-serif; text-anchor: start; fill: #222222" x="203.25324" y="23.154181" transform="rotate(-0 203.25324 23.154181)">ECE = 0.041</text>
   </g>
   <g id="text_17">
    <text style="font-weight: 700; font-size: 9.2px; font-family: 'Liberation Sans', 'Arial', 'Helvetica', 'DejaVu Sans', sans-serif; text-anchor: start; fill: #222222" x="179.90508" y="8.385187" transform="rotate(-0 179.90508 8.385187)">b</text>
   </g>
   <g id="text_18">
    <text style="font-size: 8px; font-family: 'Liberation Sans', 'Arial', 'Helvetica', 'DejaVu Sans', sans-serif; text-anchor: start; fill: #222222" x="198.583608" y="8.139264" transform="rotate(-0 198.583608 8.139264)">Temperature-scaled</text>
   </g>
  </g>
  <g id="axes_3">
   <g id="patch_8">
    <path d="M 368.278231 127.880064 
L 485.019031 127.880064 
L 485.019031 11.139264 
L 368.278231 11.139264 
z
" style="fill: #ffffff"/>
   </g>
   <g id="line2d_17">
    <path d="M 368.278231 127.880064 
L 485.019031 11.139264 
" clip-path="url(#pa45d03b2c8)" style="fill: none; stroke-dasharray: 2.775,1.2; stroke-dashoffset: 0; stroke: #7a7a7a; stroke-width: 0.75"/>
   </g>
   <g id="matplotlib.axis_5">
    <g id="xtick_7">
     <g id="line2d_18">
      <g>
       <use xlink:href="#m942646a85a" x="368.278231" y="127.880064" style="fill: #222222; stroke: #222222; stroke-width: 0.65"/>
      </g>
     </g>
     <g id="text_19">
      <text style="font-size: 7px; font-family: 'Liberation Sans', 'Arial', 'Helvetica', 'DejaVu Sans', sans-serif; text-anchor: middle; fill: #222222" x="368.278231" y="139.390533" transform="rotate(-0 368.278231 139.390533)">0.0</text>
     </g>
    </g>
    <g id="xtick_8">
     <g id="line2d_19">
      <g>
       <use xlink:href="#m942646a85a" x="426.648631" y="127.880064" style="fill: #222222; stroke: #222222; stroke-width: 0.65"/>
      </g>
     </g>
     <g id="text_20">
      <text style="font-size: 7px; font-family: 'Liberation Sans', 'Arial', 'Helvetica', 'DejaVu Sans', sans-serif; text-anchor: middle; fill: #222222" x="426.648631" y="139.390533" transform="rotate(-0 426.648631 139.390533)">0.5</text>
     </g>
    </g>
    <g id="xtick_9">
     <g id="line2d_20">
      <g>
       <use xlink:href="#m942646a85a" x="485.019031" y="127.880064" style="fill: #222222; stroke: #222222; stroke-width: 0.65"/>
      </g>
     </g>
     <g id="text_21">
      <text style="font-size: 7px; font-family: 'Liberation Sans', 'Arial', 'Helvetica', 'DejaVu Sans', sans-serif; text-anchor: middle; fill: #222222" x="485.019031" y="139.390533" transform="rotate(-0 485.019031 139.390533)">1.0</text>
     </g>
    </g>
    <g id="text_22">
     <text style="font-size: 7.5px; font-family: 'Liberation Sans', 'Arial', 'Helvetica', 'DejaVu Sans', sans-serif; text-anchor: middle; fill: #222222" x="426.648631" y="150.150142" transform="rotate(-0 426.648631 150.150142)">Mean predicted probability</text>
    </g>
   </g>
   <g id="matplotlib.axis_6">
    <g id="ytick_7">
     <g id="line2d_21">
      <g>
       <use xlink:href="#m06726cd15d" x="368.278231" y="127.880064" style="fill: #222222; stroke: #222222; stroke-width: 0.65"/>
      </g>
     </g>
    </g>
    <g id="ytick_8">
     <g id="line2d_22">
      <g>
       <use xlink:href="#m06726cd15d" x="368.278231" y="69.509664" style="fill: #222222; stroke: #222222; stroke-width: 0.65"/>
      </g>
     </g>
    </g>
    <g id="ytick_9">
     <g id="line2d_23">
      <g>
       <use xlink:href="#m06726cd15d" x="368.278231" y="11.139264" style="fill: #222222; stroke: #222222; stroke-width: 0.65"/>
      </g>
     </g>
    </g>
   </g>
   <g id="line2d_24">
    <path d="M 369.474001 123.347589 
L 385.381537 105.28507 
L 397.752223 106.654464 
L 408.536089 103.505611 
L 420.948326 90.951852 
L 431.748588 98.2002 
L 443.932895 92.614614 
L 456.148994 86.828354 
L 467.763278 85.346594 
L 482.895542 40.87882 
" clip-path="url(#pa45d03b2c8)" style="fill: none; stroke: #e64b35; stroke-width: 1.05; stroke-linecap: square"/>
    <defs>
     <path id="m7927fe503b" d="M 0 1.8 
C 0.477366 1.8 0.935244 1.610341 1.272792 1.272792 
C 1.610341 0.935244 1.8 0.477366 1.8 0 
C 1.8 -0.477366 1.610341 -0.935244 1.272792 -1.272792 
C 0.935244 -1.610341 0.477366 -1.8 0 -1.8 
C -0.477366 -1.8 -0.935244 -1.610341 -1.272792 -1.272792 
C -1.610341 -0.935244 -1.8 -0.477366 -1.8 0 
C -1.8 0.477366 -1.610341 0.935244 -1.272792 1.272792 
C -0.935244 1.610341 -0.477366 1.8 0 1.8 
z
" style="stroke: #e64b35; stroke-width: 0.75"/>
    </defs>
    <g clip-path="url(#pa45d03b2c8)">
     <use xlink:href="#m7927fe503b" x="369.474001" y="123.347589" style="fill: #ffffff; stroke: #e64b35; stroke-width: 0.75"/>
     <use xlink:href="#m7927fe503b" x="385.381537" y="105.28507" style="fill: #ffffff; stroke: #e64b35; stroke-width: 0.75"/>
     <use xlink:href="#m7927fe503b" x="397.752223" y="106.654464" style="fill: #ffffff; stroke: #e64b35; stroke-width: 0.75"/>
     <use xlink:href="#m7927fe503b" x="408.536089" y="103.505611" style="fill: #ffffff; stroke: #e64b35; stroke-width: 0.75"/>
     <use xlink:href="#m7927fe503b" x="420.948326" y="90.951852" style="fill: #ffffff; stroke: #e64b35; stroke-width: 0.75"/>
     <use xlink:href="#m7927fe503b" x="431.748588" y="98.2002" style="fill: #ffffff; stroke: #e64b35; stroke-width: 0.75"/>
     <use xlink:href="#m7927fe503b" x="443.932895" y="92.614614" style="fill: #ffffff; stroke: #e64b35; stroke-width: 0.75"/>
     <use xlink:href="#m7927fe503b" x="456.148994" y="86.828354" style="fill: #ffffff; stroke: #e64b35; stroke-width: 0.75"/>
     <use xlink:href="#m7927fe503b" x="467.763278" y="85.346594" style="fill: #ffffff; stroke: #e64b35; stroke-width: 0.75"/>
     <use xlink:href="#m7927fe503b" x="482.895542" y="40.87882" style="fill: #ffffff; stroke: #e64b35; stroke-width: 0.75"/>
    </g>
   </g>
   <g id="line2d_25">
    <path d="M 373.80931 126.635935 
L 385.228892 121.032767 
L 396.945599 107.0398 
L 408.680774 95.584423 
L 420.57519 74.85204 
L 431.885608 48.431464 
L 444.019682 39.835327 
L 455.356426 20.541208 
L 467.829652 15.308578 
L 476.204318 11.139264 
" clip-path="url(#pa45d03b2c8)" style="fill: none; stroke: #3c5488; stroke-width: 1.05; stroke-linecap: square"/>
    <defs>
     <path id="m3b09a19403" d="M -1.8 1.8 
L 1.8 1.8 
L 1.8 -1.8 
L -1.8 -1.8 
z
" style="stroke: #3c5488; stroke-width: 0.75; stroke-linejoin: miter"/>
    </defs>
    <g clip-path="url(#pa45d03b2c8)">
     <use xlink:href="#m3b09a19403" x="373.80931" y="126.635935" style="fill: #ffffff; stroke: #3c5488; stroke-width: 0.75; stroke-linejoin: miter"/>
     <use xlink:href="#m3b09a19403" x="385.228892" y="121.032767" style="fill: #ffffff; stroke: #3c5488; stroke-width: 0.75; stroke-linejoin: miter"/>
     <use xlink:href="#m3b09a19403" x="396.945599" y="107.0398" style="fill: #ffffff; stroke: #3c5488; stroke-width: 0.75; stroke-linejoin: miter"/>
     <use xlink:href="#m3b09a19403" x="408.680774" y="95.584423" style="fill: #ffffff; stroke: #3c5488; stroke-width: 0.75; stroke-linejoin: miter"/>
     <use xlink:href="#m3b09a19403" x="420.57519" y="74.85204" style="fill: #ffffff; stroke: #3c5488; stroke-width: 0.75; stroke-linejoin: miter"/>
     <use xlink:href="#m3b09a19403" x="431.885608" y="48.431464" style="fill: #ffffff; stroke: #3c5488; stroke-width: 0.75; stroke-linejoin: miter"/>
     <use xlink:href="#m3b09a19403" x="444.019682" y="39.835327" style="fill: #ffffff; stroke: #3c5488; stroke-width: 0.75; stroke-linejoin: miter"/>
     <use xlink:href="#m3b09a19403" x="455.356426" y="20.541208" style="fill: #ffffff; stroke: #3c5488; stroke-width: 0.75; stroke-linejoin: miter"/>
     <use xlink:href="#m3b09a19403" x="467.829652" y="15.308578" style="fill: #ffffff; stroke: #3c5488; stroke-width: 0.75; stroke-linejoin: miter"/>
     <use xlink:href="#m3b09a19403" x="476.204318" y="11.139264" style="fill: #ffffff; stroke: #3c5488; stroke-width: 0.75; stroke-linejoin: miter"/>
    </g>
   </g>
   <g id="line2d_26">
    <path d="M 371.779067 125.168368 
L 385.148166 109.863374 
L 397.334359 100.702312 
L 408.325887 94.002342 
L 420.788195 82.613223 
L 432.508505 67.473487 
L 443.759332 48.360968 
L 456.304043 39.556432 
L 467.86563 28.328093 
L 479.942716 13.905634 
" clip-path="url(#pa45d03b2c8)" style="fill: none; stroke: #00a087; stroke-width: 1.05; stroke-linecap: square"/>
    <defs>
     <path id="md1f3cb38f3" d="M 0 -1.8 
L -1.8 1.8 
L 1.8 1.8 
z
" style="stroke: #00a087; stroke-width: 0.75; stroke-linejoin: miter"/>
    </defs>
    <g clip-path="url(#pa45d03b2c8)">
     <use xlink:href="#md1f3cb38f3" x="371.779067" y="125.168368" style="fill: #ffffff; stroke: #00a087; stroke-width: 0.75; stroke-linejoin: miter"/>
     <use xlink:href="#md1f3cb38f3" x="385.148166" y="109.863374" style="fill: #ffffff; stroke: #00a087; stroke-width: 0.75; stroke-linejoin: miter"/>
     <use xlink:href="#md1f3cb38f3" x="397.334359" y="100.702312" style="fill: #ffffff; stroke: #00a087; stroke-width: 0.75; stroke-linejoin: miter"/>
     <use xlink:href="#md1f3cb38f3" x="408.325887" y="94.002342" style="fill: #ffffff; stroke: #00a087; stroke-width: 0.75; stroke-linejoin: miter"/>
     <use xlink:href="#md1f3cb38f3" x="420.788195" y="82.613223" style="fill: #ffffff; stroke: #00a087; stroke-width: 0.75; stroke-linejoin: miter"/>
     <use xlink:href="#md1f3cb38f3" x="432.508505" y="67.473487" style="fill: #ffffff; stroke: #00a087; stroke-width: 0.75; stroke-linejoin: miter"/>
     <use xlink:href="#md1f3cb38f3" x="443.759332" y="48.360968" style="fill: #ffffff; stroke: #00a087; stroke-width: 0.75; stroke-linejoin: miter"/>
     <use xlink:href="#md1f3cb38f3" x="456.304043" y="39.556432" style="fill: #ffffff; stroke: #00a087; stroke-width: 0.75; stroke-linejoin: miter"/>
     <use xlink:href="#md1f3cb38f3" x="467.86563" y="28.328093" style="fill: #ffffff; stroke: #00a087; stroke-width: 0.75; stroke-linejoin: miter"/>
     <use xlink:href="#md1f3cb38f3" x="479.942716" y="13.905634" style="fill: #ffffff; stroke: #00a087; stroke-width: 0.75; stroke-linejoin: miter"/>
    </g>
   </g>
   <g id="patch_9">
    <path d="M 368.278231 127.880064 
L 368.278231 11.139264 
" style="fill: none; stroke: #222222; stroke-width: 0.65; stroke-linejoin: miter; stroke-linecap: square"/>
   </g>
   <g id="patch_10">
    <path d="M 368.278231 127.880064 
L 485.019031 127.880064 
" style="fill: none; stroke: #222222; stroke-width: 0.65; stroke-linejoin: miter; stroke-linecap: square"/>
   </g>
   <g id="text_23">
    <text style="font-weight: 700; font-size: 9.2px; font-family: 'Liberation Sans', 'Arial', 'Helvetica', 'DejaVu Sans', sans-serif; text-anchor: start; fill: #222222" x="349.599703" y="8.385187" transform="rotate(-0 349.599703 8.385187)">c</text>
   </g>
   <g id="text_24">
    <text style="font-size: 6.5px; font-family: 'Liberation Sans', 'Arial', 'Helvetica', 'DejaVu Sans', sans-serif; text-anchor: start; fill: #7a7a7a" x="372.947863" y="20.461474" transform="rotate(-0 372.947863 20.461474)">ECE</text>
   </g>
   <g id="text_25">
    <text style="font-size: 6.5px; font-family: 'Liberation Sans', 'Arial', 'Helvetica', 'DejaVu Sans', sans-serif; text-anchor: start; fill: #e64b35" x="372.947863" y="32.135554" transform="rotate(-0 372.947863 32.135554)">Raw: 0.105</text>
   </g>
   <g id="text_26">
    <text style="font-size: 6.5px; font-family: 'Liberation Sans', 'Arial', 'Helvetica', 'DejaVu Sans', sans-serif; text-anchor: start; fill: #3c5488" x="372.947863" y="43.245227" transform="rotate(-0 372.947863 43.245227)">Temperature: 0.067</text>
   </g>
   <g id="text_27">
    <text style="font-size: 6.5px; font-family: 'Liberation Sans', 'Arial', 'Helvetica', 'DejaVu Sans', sans-serif; text-anchor: start; fill: #00a087" x="372.947863" y="54.316306" transform="rotate(-0 372.947863 54.316306)">Task-calibrated: 0.019</text>
   </g>
   <g id="text_28">
    <text style="font-size: 8px; font-family: 'Liberation Sans', 'Arial', 'Helvetica', 'DejaVu Sans', sans-serif; text-anchor: start; fill: #222222" x="368.278231" y="8.139264" transform="rotate(-0 368.278231 8.139264)">Risk-proxy class</text>
   </g>
  </g>
 </g>
 <defs>
  <clipPath id="pa0202df4ad">
   <rect x="28.888984" y="11.139264" width="116.7408" height="116.7408"/>
  </clipPath>
  <clipPath id="p38adf6f2c6">
   <rect x="198.583608" y="11.139264" width="116.7408" height="116.7408"/>
  </clipPath>
  <clipPath id="pa45d03b2c8">
   <rect x="368.278231" y="11.139264" width="116.7408" height="116.7408"/>
  </clipPath>
 </defs>
</svg>
